<svg xmlns="http://www.w3.org/2000/svg" version="1.1" viewBox="618.4107946026986 373.9200000000001 729.2353823088456 712.8" style="max-height: 500px" width="73" height="73">
<path transform="translate(1035,383)" fill="#BA26C1" d="M0 0 C1.21204102 0.19867676 2.42408203 0.39735352 3.67285156 0.60205078 C56.83910274 9.56604994 108.88390358 28.53598347 153 60 C153.74733398 60.53238281 154.49466797 61.06476563 155.26464844 61.61328125 C165.55467673 68.98648389 175.52322735 76.60556792 185 85 C185.89847656 85.78761719 186.79695313 86.57523437 187.72265625 87.38671875 C194.58948828 93.5388594 201.14155263 100.00997164 207.6875 106.5 C209.00621094 107.7991333 209.00621094 107.7991333 210.3515625 109.12451172 C216.33739071 115.10246384 221.73604877 121.38301121 227 128 C228.0244984 129.24323562 229.0514641 130.48444659 230.08203125 131.72265625 C241.44213111 145.54563389 251.06280653 160.52102938 260 176 C260.39928711 176.68497559 260.79857422 177.36995117 261.20996094 178.07568359 C283.54682863 216.55054587 299.31590092 261.53673519 303 306 C303.66 306 304.32 306 305 306 C304.98259766 307.4540625 304.98259766 307.4540625 304.96484375 308.9375 C304.55133156 324.68727035 304.55133156 324.68727035 306.50927734 340.21337891 C307.14381515 343.81666971 307.16241226 347.36532993 307.16796875 351.01171875 C307.17129715 351.77998489 307.17462555 352.54825104 307.17805481 353.33979797 C307.18310389 354.96277267 307.18546376 356.58575769 307.18530273 358.20874023 C307.18747751 360.66212623 307.20562208 363.1150535 307.22460938 365.56835938 C307.25006135 372.86137342 307.1717456 379.71412527 305.44750977 386.84204102 C304.67059457 390.58844224 304.7872028 394.31595216 304.875 398.125 C304.88853516 399.27355469 304.88853516 399.27355469 304.90234375 400.4453125 C304.92549005 402.29701647 304.96133874 404.14855499 305 406 C303.68 406.33 302.36 406.66 301 407 C300.86537354 407.69633545 300.73074707 408.3926709 300.59204102 409.11010742 C294.03990985 442.4800108 284.0139013 475.02254173 267.97705078 505.14746094 C266.94765467 507.09924947 265.95466013 509.0669319 264.96484375 511.0390625 C254.44013486 531.77629645 240.97652975 551.23713913 226 569 C224.83597656 570.44246094 224.83597656 570.44246094 223.6484375 571.9140625 C216.74186047 580.35952643 209.12745183 588.08835428 201.4375 595.8125 C200.90697021 596.34820618 200.37644043 596.88391235 199.82983398 597.43585205 C192.88932953 604.42965023 185.74303901 610.88537491 178 617 C176.73349388 618.0364003 175.46890164 619.07514794 174.20703125 620.1171875 C157.28622854 633.92376199 138.96337472 645.40618245 120 656.1875 C119.32324219 656.57437988 118.64648438 656.96125977 117.94921875 657.35986328 C113.2415638 660 113.2415638 660 111 660 C110.855625 660.639375 110.71125 661.27875 110.5625 661.9375 C110 664 110 664 109 665 C107.14375 665.0928125 107.14375 665.0928125 105.25 665.1875 C99.50418281 665.72414637 94.83660804 668.18063343 89.72265625 670.72265625 C87 672 87 672 85 672 C85.04125 672.78375 85.0825 673.5675 85.125 674.375 C85 677 85 677 83 679 C79.5 679.25 79.5 679.25 76 679 C75.34 678.34 74.68 677.68 74 677 C72.51886719 677.54140625 72.51886719 677.54140625 71.0078125 678.09375 C69.71360209 678.56266681 68.41932794 679.03140769 67.125 679.5 C66.47402344 679.73847656 65.82304688 679.97695312 65.15234375 680.22265625 C60.2265625 682 60.2265625 682 58 682 C58.061875 683.918125 58.061875 683.918125 58.125 685.875 C58.1953125 688.0546875 58.1953125 688.0546875 58 690 C56 692 56 692 53 692.25 C50 692 50 692 48 690 C47.875 687.375 47.875 687.375 48 685 C47.09636719 685.28875 46.19273437 685.5775 45.26171875 685.875 C44.08222656 686.24625 42.90273437 686.6175 41.6875 687 C40.51574219 687.37125 39.34398437 687.7425 38.13671875 688.125 C35 689 35 689 32 689 C32.04125 689.78375 32.0825 690.5675 32.125 691.375 C32 694 32 694 30 696 C26.875 696.125 26.875 696.125 24 696 C23.34 694.68 22.68 693.36 22 692 C18.7 692.66 15.4 693.32 12 694 C11.690625 694.969375 11.38125 695.93875 11.0625 696.9375 C10 700 10 700 9 701 C3.6360424 701.4664311 3.6360424 701.4664311 1.125 699.625 C0 698 0 698 0 696 C-4.62 696.33 -9.24 696.66 -14 697 C-14.33 698.65 -14.66 700.3 -15 702 C-18 704 -18 704 -20.5625 703.75 C-23 703 -23 703 -25 701 C-25 700.01 -25 699.02 -25 698 C-25.99 698.33 -26.98 698.66 -28 699 C-29.55416253 699.10168771 -31.11224445 699.14836148 -32.66967773 699.16113281 C-33.62117706 699.17058929 -34.57267639 699.18004578 -35.55300903 699.18978882 C-36.58610199 699.19418976 -37.61919495 699.1985907 -38.68359375 699.203125 C-39.75793671 699.21018463 -40.83227966 699.21724426 -41.93917847 699.22451782 C-87.33535331 699.45445355 -87.33535331 699.45445355 -108 696 C-109.21204102 695.80132324 -110.42408203 695.60264648 -111.67285156 695.39794922 C-163.43199023 686.67119371 -214.93736485 668.59228574 -258 638 C-259.11040545 637.22617257 -260.22109845 636.45275766 -261.33203125 635.6796875 C-269.19438808 630.17199678 -276.83950743 624.40996882 -284.30273438 618.37255859 C-285.88802864 617.09054991 -287.48273757 615.82020755 -289.078125 614.55078125 C-297.6639746 607.55475485 -305.47050914 599.74173354 -313.3125 591.9375 C-313.87239624 591.38287079 -314.43229248 590.82824158 -315.00915527 590.25680542 C-322.14602648 583.17184586 -328.76145743 575.90469281 -335 568 C-336.02396116 566.75632185 -337.05089883 565.51508271 -338.08203125 564.27734375 C-348.96819983 551.03104604 -358.31394247 536.73440383 -366.89355469 521.90283203 C-367.63618711 520.62567468 -368.38697487 519.35322743 -369.14550781 518.08544922 C-381.91031847 496.74179449 -390.82146357 473.39763593 -398.87890625 449.94921875 C-400.42100671 445.48518791 -402.16379992 441.21358286 -404.23217773 436.96826172 C-405.36212634 434.07171301 -405.44487492 431.23956986 -405.65625 428.1640625 C-406.03311079 425.7915525 -406.776967 424.36544825 -408 422.3125 C-410.65985985 417.55728293 -410.5716367 412.71808633 -410.7265625 407.3671875 C-411.00632204 403.92214853 -411.89147977 401.25760543 -413 398 C-413.29942888 395.73735912 -413.52877163 393.46434139 -413.6875 391.1875 C-413.81705078 389.47626953 -413.81705078 389.47626953 -413.94921875 387.73046875 C-413.97435547 386.37888672 -413.97435547 386.37888672 -414 385 C-413.67 384.67 -413.34 384.34 -413 384 C-412.9064081 382.28134591 -412.88255389 380.55884256 -412.88647461 378.83764648 C-412.88655014 377.73658066 -412.88662567 376.63551483 -412.88670349 375.50108337 C-412.89186478 374.3031868 -412.89702606 373.10529022 -412.90234375 371.87109375 C-412.9037587 370.65172623 -412.90517365 369.4323587 -412.90663147 368.17604065 C-412.91225033 364.2631693 -412.92480604 360.35035419 -412.9375 356.4375 C-412.94251257 353.79231853 -412.9470759 351.14713617 -412.95117188 348.50195312 C-412.96222589 342.00128274 -412.97898236 335.50064539 -413 329 C-413.99 329 -414.98 329 -416 329 C-415.23552389 317.9754498 -414.12880187 306.99211922 -413 296 C-412.01 295.67 -411.02 295.34 -410 295 C-409.96261719 293.69804688 -409.92523437 292.39609375 -409.88671875 291.0546875 C-409.82103326 289.32809743 -409.75458682 287.60153619 -409.6875 285.875 C-409.66494141 285.0190625 -409.64238281 284.163125 -409.61914062 283.28125 C-409.39738728 278.03980728 -408.59451492 274.64670843 -406 270 C-403.62122221 263.77129424 -401.86798462 257.29241415 -399.94335938 250.91381836 C-395.92040665 237.65770277 -391.48720688 224.73180658 -386 212 C-385.66564941 211.20400391 -385.33129883 210.40800781 -384.98681641 209.58789062 C-374.12188592 183.76758167 -359.60848998 158.81529646 -342 137 C-341.34773437 136.16726563 -340.69546875 135.33453125 -340.0234375 134.4765625 C-338.04430101 131.95988277 -336.02719923 129.478102 -334 127 C-333.2575 126.07058594 -332.515 125.14117187 -331.75 124.18359375 C-324.67341607 115.51542848 -316.82509666 107.60873661 -308.9375 99.6875 C-308.3831427 99.12796631 -307.8287854 98.56843262 -307.25762939 97.99194336 C-300.17446996 90.85675762 -292.92343726 84.21244408 -285 78 C-284.24001709 77.3913208 -283.48003418 76.7826416 -282.69702148 76.15551758 C-272.80160237 68.23807479 -262.73015094 60.74791711 -252 54 C-251.1342334 53.45448486 -251.1342334 53.45448486 -250.25097656 52.89794922 C-245.88757196 50.1711269 -241.46150534 47.56267094 -237 45 C-236.20770996 44.54367187 -235.41541992 44.08734375 -234.59912109 43.6171875 C-195.18669656 21.09149997 -152.71651955 7.32989479 -108 0 C-106.3907666 -0.26901123 -106.3907666 -0.26901123 -104.74902344 -0.54345703 C-71.13629568 -5.87385339 -33.55013113 -5.60848542 0 0 Z"/>
<path transform="translate(697.268186211586,517.7516030073166)" fill="#F7F6F8" d="M0 0 C0.95613579 0.00075944 1.91227158 0.00151888 2.89738119 0.00230134 C4.54925874 -0.00367181 4.54925874 -0.00367181 6.23450756 -0.00976562 C7.45433059 -0.00393994 8.67415362 0.00188574 9.93094099 0.00788796 C11.21896883 0.00617911 12.50699667 0.00447026 13.83405566 0.00270963 C17.42107728 -0.00177955 21.0079803 0.00626119 24.5949868 0.01626575 C28.45865514 0.02487546 32.32231641 0.02198185 36.18599164 0.0204612 C42.88400718 0.01941077 49.58198384 0.02570381 56.2799896 0.03693688 C65.96426315 0.0531676 75.64851785 0.05839739 85.33280353 0.06091286 C101.04361709 0.06529379 116.75440993 0.07861365 132.46521223 0.09751809 C147.72985961 0.11586662 162.99450136 0.13002814 178.25915754 0.13853371 C179.66972478 0.13932188 179.66972478 0.13932188 181.10878833 0.14012598 C185.82622947 0.14273599 190.54367065 0.14526342 195.26111186 0.14774978 C234.41803091 0.16849466 273.57491164 0.20537107 312.73181379 0.24839699 C312.73181379 25.32839699 312.73181379 50.40839699 312.73181379 76.24839699 C193.93181379 76.24839699 75.13181379 76.24839699 -47.26818621 76.24839699 C-44.86788338 70.24763992 -42.55111177 64.47498297 -39.64318621 58.74839699 C-39.30255145 58.07534523 -38.96191668 57.40229348 -38.61095965 56.70884621 C-10.22217484 1.11946606 -10.22217484 1.11946606 0 0 Z"/>
<path transform="translate(636,636)" fill="#F7F6F8" d="M0 0 C103.62 0 207.24 0 314 0 C314 25.08 314 50.16 314 76 C204.77 76 95.54 76 -17 76 C-16.38809822 68.04527683 -15.75430265 60.11956125 -14.9375 52.1875 C-14.84662109 51.29224609 -14.75574219 50.39699219 -14.66210938 49.47460938 C-14.44281214 47.31626294 -14.22162038 45.15810913 -14 43 C-12.515 42.505 -12.515 42.505 -11 42 C-10.96261719 40.69804688 -10.92523437 39.39609375 -10.88671875 38.0546875 C-10.82103326 36.32809743 -10.75458682 34.60153619 -10.6875 32.875 C-10.65366211 31.59109375 -10.65366211 31.59109375 -10.61914062 30.28125 C-10.39937489 25.08678729 -9.66664969 21.5780828 -7 17 C-6.42177602 15.45065625 -5.8756209 13.88863062 -5.375 12.3125 C-5.13523437 11.56613281 -4.89546875 10.81976562 -4.6484375 10.05078125 C-4.43445313 9.37402344 -4.22046875 8.69726562 -4 8 C-3.67 7.01 -3.34 6.02 -3 5 C-2.34 4.67 -1.68 4.34 -1 4 C-0.67 2.68 -0.34 1.36 0 0 Z"/>
<path transform="translate(623,756)" fill="#F7F6F8" d="M0 0 C86.13 0 172.26 0 261 0 C261 25.08 261 50.16 261 76 C179.16 76 97.32 76 13 76 C6.55765936 60.96787183 6.55765936 60.96787183 6.2734375 54.98828125 C5.95660828 52.68448023 5.18251772 51.30432949 4 49.3125 C1.34014015 44.55728293 1.4283633 39.71808633 1.2734375 34.3671875 C0.99367796 30.92214853 0.10852023 28.25760543 -1 25 C-1.29942888 22.73735912 -1.52877163 20.46434139 -1.6875 18.1875 C-1.77386719 17.04667969 -1.86023438 15.90585937 -1.94921875 14.73046875 C-1.96597656 13.82941406 -1.98273437 12.92835938 -2 12 C-1.67 11.67 -1.34 11.34 -1 11 C-0.67 7.37 -0.34 3.74 0 0 Z"/>
<path transform="translate(1069,909)" fill="#FEFCFE" d="M0 0 C4.2599076 1.4199692 5.69521982 4.58682953 8.0625 8.1875 C9.03889062 9.6468206 10.01678775 11.10513422 10.99609375 12.5625 C11.49222168 13.30242188 11.98834961 14.04234375 12.49951172 14.8046875 C13.93197418 16.90047378 15.40581757 18.95536706 16.91015625 21 C17.36704834 21.62237549 17.82394043 22.24475098 18.29467773 22.88598633 C19.16150321 24.0598357 20.03443844 25.22920544 20.91430664 26.39331055 C24.55946119 31.36220413 25.13255721 35.39670452 25.0957489 41.44718933 C25.09159973 42.52818405 25.08745056 43.60917877 25.08317566 44.72293091 C25.07337173 45.89870697 25.06356781 47.07448303 25.0534668 48.28588867 C25.04387436 50.15485054 25.04387436 50.15485054 25.03408813 52.06156921 C25.01523062 55.47044179 24.99165299 58.87921175 24.96532798 62.28803039 C24.94380489 65.13378176 24.9251641 67.97954941 24.90639621 70.82532007 C24.86194018 77.53520054 24.81165032 84.24502082 24.75805664 90.95483398 C24.70285765 97.88207259 24.658905 104.80932103 24.62020558 111.73666972 C24.58650752 117.68415788 24.54519508 123.63156106 24.49788028 129.57895643 C24.46973917 133.13139141 24.44468327 136.68378314 24.4272213 140.23628807 C24.4074526 144.1917416 24.37186238 148.14696446 24.3347168 152.10229492 C24.32911995 153.87506805 24.32911995 153.87506805 24.32341003 155.68365479 C24.31080139 156.75619003 24.29819275 157.82872528 24.28520203 158.9337616 C24.27837245 159.86933993 24.27154287 160.80491827 24.26450634 161.76884747 C24 164 24 164 22 166 C19 166.25 19 166.25 16 166 C14 164 14 164 13.77460003 161.77392578 C13.79163085 160.37376221 13.79163085 160.37376221 13.80900574 158.9453125 C13.81662933 157.87473602 13.82425293 156.80415955 13.83210754 155.70114136 C13.85037094 154.52101471 13.86863434 153.34088806 13.88745117 152.125 C13.90992324 149.55485164 13.93222868 146.98470182 13.95439148 144.41455078 C13.96962605 143.03077986 13.98506335 141.64701115 14.00069237 140.26324463 C14.04653924 135.97353144 14.06547046 131.68396887 14.07771301 127.39404297 C14.0798794 126.66891195 14.08204578 125.94378094 14.08427781 125.19667625 C14.08861371 123.71314009 14.09286612 122.22960368 14.09703696 120.74606705 C14.12574108 110.76012063 14.1694164 100.77525523 14.2980957 90.79003906 C14.38468819 84.05523526 14.42397843 77.32190622 14.41084272 70.58653641 C14.40571208 67.02874214 14.42313367 63.47455358 14.49855614 59.91748047 C14.85183761 42.49189394 13.72795544 30.77626485 1.54546547 17.73861694 C-0.76365727 15.14090124 -2.49904467 12.33681909 -4.3125 9.375 C-4.84488281 8.51648438 -5.37726563 7.65796875 -5.92578125 6.7734375 C-6.28027344 6.18820312 -6.63476562 5.60296875 -7 5 C-6.030625 4.54625 -5.06125 4.0925 -4.0625 3.625 C-0.92920418 2.34213779 -0.92920418 2.34213779 0 0 Z"/>
<path transform="translate(1002,749)" fill="#0A060B" d="M0 0 C-1 2 -1 2 -2.6796875 2.640625 C-3.40414062 2.84171875 -4.12859375 3.0428125 -4.875 3.25 C-22.58769994 8.85385896 -35.42953836 21.44177233 -44.0078125 37.6875 C-49.00056202 47.66829556 -52.87991187 57.91928769 -56.375 68.5 C-56.58578186 69.13744141 -56.79656372 69.77488281 -57.01373291 70.43164062 C-59.5768046 78.22799536 -61.93262823 86.05769342 -64 94 C-70.43829513 95.33624993 -70.43829513 95.33624993 -72.703125 93.98046875 C-74.63698187 91.02725962 -74.40101885 88.04300298 -74.4375 84.625 C-74.79291098 74.94417697 -76.40601574 64.50981541 -83 57 C-85.57839838 54.86290442 -88.23703433 52.89115611 -91 51 C-89 50 -89 50 -86.8984375 50.49609375 C-80.06415023 53.04572724 -75.76539656 56.51580061 -71 62 C-70.68869141 60.94425781 -70.68869141 60.94425781 -70.37109375 59.8671875 C-65.97820736 45.78789472 -59.19876163 30.01994461 -48 20 C-47.29875 19.236875 -46.5975 18.47375 -45.875 17.6875 C-32.97151348 5.62554521 -17.87393161 -1.08938184 0 0 Z"/>
<path transform="translate(1071,636)" fill="#0A060B" d="M0 0 C-1 2 -1 2 -2.6796875 2.640625 C-3.40414063 2.84171875 -4.12859375 3.0428125 -4.875 3.25 C-22.58769994 8.85385896 -35.42953836 21.44177233 -44.0078125 37.6875 C-49.00056202 47.66829556 -52.87991187 57.91928769 -56.375 68.5 C-56.58578186 69.13744141 -56.79656372 69.77488281 -57.01373291 70.43164062 C-59.5768046 78.22799536 -61.93262823 86.05769342 -64 94 C-70.43829513 95.33624993 -70.43829513 95.33624993 -72.703125 93.98046875 C-74.63698187 91.02725962 -74.40101885 88.04300298 -74.4375 84.625 C-74.79291098 74.94417697 -76.40601574 64.50981541 -83 57 C-85.57839838 54.86290442 -88.23703433 52.89115611 -91 51 C-89 50 -89 50 -86.8984375 50.49609375 C-80.06415023 53.04572724 -75.76539656 56.51580061 -71 62 C-70.68869141 60.94425781 -70.68869141 60.94425781 -70.37109375 59.8671875 C-65.97820736 45.78789472 -59.19876163 30.01994461 -48 20 C-47.29875 19.236875 -46.5975 18.47375 -45.875 17.6875 C-32.97151348 5.62554521 -17.87393161 -1.08938184 0 0 Z"/>
<path transform="translate(1149,504)" fill="#0A060B" d="M0 0 C-1 2 -1 2 -2.6796875 2.640625 C-3.40414063 2.84171875 -4.12859375 3.0428125 -4.875 3.25 C-22.58769994 8.85385896 -35.42953836 21.44177233 -44.0078125 37.6875 C-49.00056202 47.66829556 -52.87991187 57.91928769 -56.375 68.5 C-56.58578186 69.13744141 -56.79656372 69.77488281 -57.01373291 70.43164062 C-59.5768046 78.22799536 -61.93262823 86.05769342 -64 94 C-70.43829513 95.33624993 -70.43829513 95.33624993 -72.703125 93.98046875 C-74.63698187 91.02725962 -74.40101885 88.04300298 -74.4375 84.625 C-74.79291098 74.94417697 -76.40601574 64.50981541 -83 57 C-85.57839838 54.86290442 -88.23703433 52.89115611 -91 51 C-89 50 -89 50 -86.8984375 50.49609375 C-80.06415023 53.04572724 -75.76539656 56.51580061 -71 62 C-70.68869141 60.94425781 -70.68869141 60.94425781 -70.37109375 59.8671875 C-65.97820736 45.78789472 -59.19876163 30.01994461 -48 20 C-47.29875 19.236875 -46.5975 18.47375 -45.875 17.6875 C-32.97151348 5.62554521 -17.87393161 -1.08938184 0 0 Z"/>
<path transform="translate(1250.875,721.375)" fill="#FCF8FC" d="M0 0 C2.05395068 0.04275281 4.10799831 0.08104467 6.16210938 0.11523438 C10.65553074 0.19709058 15.14727114 0.30598475 19.63964844 0.43261719 C27.85530831 0.65650333 36.07126228 0.77317158 44.2890625 0.8828125 C47.19417776 0.92235839 50.09928729 0.96231111 53.00439453 1.00244141 C54.07559319 1.01717656 54.07559319 1.01717656 55.16843224 1.0322094 C66.82118139 1.19479861 78.47309816 1.4111721 90.125 1.625 C91.2827506 5.09825181 91.19366652 7.98567448 91.125 11.625 C90.31001856 11.60564235 90.31001856 11.60564235 89.47857285 11.58589363 C76.16170402 11.27458183 62.84548544 11.04492819 49.52573776 10.89962959 C43.08363751 10.82696736 36.64418808 10.72864095 30.20361328 10.56884766 C23.97227743 10.41523666 17.7434685 10.33271789 11.51038361 10.2967186 C9.14850375 10.27111143 6.78674171 10.22111031 4.42595673 10.14477921 C-13.92514043 9.57575278 -23.94868765 13.86455377 -37.875 25.625 C-40.16650062 27.49748747 -42.34638485 29.05505633 -44.875 30.625 C-47.00458908 30.37411308 -47.00458908 30.37411308 -48.875 29.625 C-50 27.625 -50 27.625 -50.875 25.625 C-51.535 25.295 -52.195 24.965 -52.875 24.625 C-52.875 23.965 -52.875 23.305 -52.875 22.625 C-51.3371582 21.34741211 -51.3371582 21.34741211 -49.17578125 19.90234375 C-48.37720703 19.36287109 -47.57863281 18.82339844 -46.75585938 18.26757812 C-45.90830078 17.70490234 -45.06074219 17.14222656 -44.1875 16.5625 C-42.55823505 15.46798167 -40.92933673 14.37291743 -39.30078125 13.27734375 C-38.42518555 12.70790039 -37.54958984 12.13845703 -36.64746094 11.55175781 C-33.79395019 9.63922812 -33.79395019 9.63922812 -31.06347656 7.20605469 C-21.18319299 -0.87086207 -12.37313311 -0.46240456 0 0 Z"/>
<path transform="translate(1063.125,941.1875)" fill="#FEFDFE" d="M0 0 C1.423125 0.4021875 1.423125 0.4021875 2.875 0.8125 C4.15981272 3.38212544 4.00377251 5.21055431 4.00871277 8.08874512 C4.01297775 9.20768661 4.01724274 10.32662811 4.02163696 11.47947693 C4.02118378 12.71279251 4.02073059 13.94610809 4.02026367 15.21679688 C4.02530159 17.1582534 4.02530159 17.1582534 4.03044128 19.13893127 C4.03929066 22.69462356 4.04161976 26.2502918 4.04225707 29.80599403 C4.04320531 32.77090508 4.04688252 35.73581048 4.05042917 38.70071936 C4.0585769 45.69289783 4.06101307 52.68506342 4.06030273 59.67724609 C4.0597015 66.89930455 4.07026165 74.12128842 4.0860464 81.343328 C4.09910297 87.53698247 4.10448744 93.73061251 4.10384732 99.92428064 C4.10359183 103.62658464 4.10647146 107.32882234 4.11702538 111.03111267 C4.12846512 115.15686177 4.12397114 119.28244264 4.11791992 123.40820312 C4.12353943 124.64151871 4.12915894 125.87483429 4.13494873 127.14552307 C4.13075424 128.26446457 4.12655975 129.38340607 4.12223816 130.53625488 C4.12278293 131.51260139 4.12332769 132.48894791 4.12388897 133.49488068 C3.875 135.8125 3.875 135.8125 1.875 137.8125 C-1.125 138.0625 -1.125 138.0625 -4.125 137.8125 C-6.72315482 135.21434518 -6.37807982 134.16062399 -6.38569641 130.54298401 C-6.39278122 129.42548767 -6.39986603 128.30799133 -6.40716553 127.15663147 C-6.40468811 125.92488693 -6.40221069 124.6931424 -6.3996582 123.42407227 C-6.40476913 122.13137421 -6.40988007 120.83867615 -6.41514587 119.50680542 C-6.42856466 115.95515419 -6.42911135 112.40360918 -6.42658257 108.85193753 C-6.42551476 105.88959992 -6.43039139 102.92728397 -6.435188 99.96495098 C-6.44629324 92.97751277 -6.44671496 85.99012832 -6.44067383 79.00268555 C-6.43463271 71.78855458 -6.44694611 64.57461859 -6.4682439 57.3605209 C-6.48584392 51.17193721 -6.49186378 44.98341566 -6.48860615 38.79480785 C-6.4867905 35.09635715 -6.48945727 31.39804549 -6.50332069 27.69961739 C-6.51819732 23.5763897 -6.50894299 19.45356032 -6.49731445 15.33032227 C-6.50495819 14.10060196 -6.51260193 12.87088165 -6.52047729 11.60389709 C-6.51346298 10.48358093 -6.50644867 9.36326477 -6.4992218 8.20899963 C-6.49938954 7.23357491 -6.49955729 6.2581502 -6.49973011 5.25316715 C-6.125 2.8125 -6.125 2.8125 -4.79692364 0.96350002 C-3.125 -0.1875 -3.125 -0.1875 0 0 Z"/>
<path transform="translate(1037,972)" fill="#FCF8FD" d="M0 0 C3.125 0.375 3.125 0.375 6 1 C6.9497293 3.91468648 7.33048678 6.11108242 6.24462891 9.03173828 C5.00862589 11.4253272 3.68488169 13.74441248 2.3125 16.0625 C1.88388672 16.81337891 1.45527344 17.56425781 1.01367188 18.33789062 C0.55154297 19.14548828 0.08941406 19.95308594 -0.38671875 20.78515625 C-0.90733887 21.71932373 -1.42795898 22.65349121 -1.96435547 23.6159668 C-3.56799778 26.28184424 -5.22966569 28.71459463 -7.05517578 31.22192383 C-17.57163812 46.42412957 -17.37692933 60.71866398 -16.59082031 78.41320801 C-16.34953112 84.12339448 -16.21820793 89.83713987 -16.0877533 95.55073357 C-16.03232813 97.52794551 -15.94379513 99.50414062 -15.85461426 101.4801178 C-15.81557983 102.67334152 -15.77654541 103.86656525 -15.73632812 105.09594727 C-15.69125122 106.14291275 -15.64617432 107.18987823 -15.59973145 108.26856995 C-16.10959318 111.74786319 -17.22921897 112.90579084 -20 115 C-23.39154295 114.83849795 -24.58296757 114.41703243 -27 112 C-27.34817505 109.40432739 -27.34817505 109.40432739 -27.48095703 106.06689453 C-27.53244904 104.81603058 -27.58394104 103.56516663 -27.63699341 102.27639771 C-27.81870975 96.43913275 -27.93775276 90.60101121 -28.02978516 84.76171875 C-28.08241608 81.7140046 -28.17846662 78.67292836 -28.31689453 75.62792969 C-29.31424161 53.14285177 -25.8158301 38.40208025 -12.91751099 19.79879761 C-10.27484766 15.94156819 -7.9464967 11.93011122 -5.625 7.875 C-2.27586207 2.27586207 -2.27586207 2.27586207 0 0 Z"/>
<path transform="translate(1235.588623046875,747.757080078125)" fill="#FCF8FD" d="M0 0 C1.69443237 0.00616333 1.69443237 0.00616333 3.4230957 0.01245117 C4.39541389 0.01259468 4.39541389 0.01259468 5.38737488 0.01274109 C7.62470428 0.0165731 9.86163295 0.03587102 12.09887695 0.05541992 C13.70776172 0.06239684 15.31664864 0.06888877 16.92553711 0.07495117 C46.75493768 0.22643839 76.58552564 0.77880886 106.41137695 1.24291992 C106.41137695 4.54291992 106.41137695 7.84291992 106.41137695 11.24291992 C96.18621914 11.26639251 85.96106804 11.28400871 75.73588848 11.29473209 C70.98472307 11.2998863 66.23357647 11.30684281 61.48242188 11.31835938 C25.20681283 11.40364844 25.20681283 11.40364844 8.3684082 10.86401367 C6.70801765 10.81809837 6.70801765 10.81809837 5.01408386 10.77125549 C3.52815483 10.71360268 3.52815483 10.71360268 2.01220703 10.65478516 C1.16322342 10.62376205 0.31423981 10.59273895 -0.56047058 10.56077576 C-2.58862305 10.24291992 -2.58862305 10.24291992 -4.58862305 8.24291992 C-4.83862305 5.24291992 -4.83862305 5.24291992 -4.58862305 2.24291992 C-2.58862305 0.24291992 -2.58862305 0.24291992 0 0 Z"/>
<path transform="translate(1146,949)" fill="#FCF7FC" d="M0 0 C0.04626405 12.61267227 0.08183895 25.22532448 0.10362434 37.83806419 C0.11407824 43.69415653 0.12826667 49.55019098 0.15087891 55.40625 C0.1725501 61.05370277 0.18455651 66.70109972 0.18975449 72.34859085 C0.19346056 74.50724797 0.20069719 76.6659019 0.21146011 78.82453537 C0.22589897 81.8393091 0.22798114 84.85384981 0.22705078 87.86865234 C0.23424133 88.76848343 0.24143188 89.66831451 0.24884033 90.59541321 C0.22810432 96.77189568 0.22810432 96.77189568 -2 99 C-5.625 99.125 -5.625 99.125 -9 99 C-10.68967804 95.62064392 -10.13794849 91.78493854 -10.12939453 88.06811523 C-10.13114685 87.14284027 -10.13289917 86.21756531 -10.13470459 85.26425171 C-10.13911786 82.19568016 -10.13618718 79.12716591 -10.1328125 76.05859375 C-10.13348563 73.93392424 -10.13445573 71.80925481 -10.13571167 69.68458557 C-10.13718788 65.22827421 -10.13503631 60.77198287 -10.13037109 56.31567383 C-10.1246704 50.58973061 -10.12795546 44.86383423 -10.13394356 39.13789272 C-10.13754827 34.75002181 -10.13641106 30.36216209 -10.13381577 25.97429085 C-10.13314643 23.86226458 -10.13397516 21.75023731 -10.13629532 19.6382122 C-10.13882075 16.69294394 -10.13498296 13.74775273 -10.12939453 10.80249023 C-10.13141876 9.92090744 -10.13344299 9.03932465 -10.13552856 8.13102722 C-10.11426308 2.11426308 -10.11426308 2.11426308 -9 1 C-2.88888889 0 -2.88888889 0 0 0 Z"/>
<path transform="translate(1138.5,899.75)" fill="#FDFBFE" d="M0 0 C2.5 0.25 2.5 0.25 4.5 2.25 C5.08546193 5.33529145 4.9540811 7.41925218 3.43457031 10.19921875 C1.89845263 12.44083606 0.28507158 14.59860679 -1.375 16.75 C-3.0830911 19.02471748 -4.78521423 21.30113941 -6.45996094 23.60058594 C-8.5 26.25 -8.5 26.25 -11.14160156 29.09472656 C-20.66869534 39.85540017 -19.79979408 51.23394541 -19.5 65 C-19.47162942 68.3092593 -19.45718273 71.61818068 -19.45068359 74.92755127 C-19.44203776 76.97321092 -19.41815241 79.01887517 -19.37744141 81.06414795 C-19.36503418 81.9798053 -19.35262695 82.89546265 -19.33984375 83.83886719 C-19.32300537 84.64491394 -19.30616699 85.45096069 -19.28881836 86.28143311 C-19.5 88.25 -19.5 88.25 -21.5 90.25 C-24.5 90.5625 -24.5 90.5625 -27.5 90.25 C-29.58608459 87.12087311 -29.78225009 86.20043028 -29.93334961 82.60522461 C-29.97515854 81.66251205 -30.01696747 80.7197995 -30.06004333 79.7485199 C-30.19019475 75.38264892 -30.29590427 71.01743249 -30.36499023 66.65014648 C-30.41278317 64.36783252 -30.48735949 62.08589959 -30.59057617 59.80541992 C-31.32926625 43.28792412 -29.18627062 33.44129774 -18.0541687 21.01565552 C-16.06209971 18.7525115 -14.36229645 16.34020861 -12.67578125 13.84375 C-12.18529297 13.14378906 -11.69480469 12.44382812 -11.18945312 11.72265625 C-10.22807349 10.3453606 -9.2671741 8.96772965 -8.30664062 7.58984375 C-7.83033203 6.91050781 -7.35402344 6.23117187 -6.86328125 5.53125 C-6.45376221 4.94408203 -6.04424316 4.35691406 -5.62231445 3.75195312 C-3.04635209 0.30463521 -3.04635209 0.30463521 0 0 Z"/>
<path transform="translate(1109,1007)" fill="#FCF6FC" d="M0 0 C0.9075 0.185625 1.815 0.37125 2.75 0.5625 C5.68314324 0.95734621 7.2644657 0.94691572 10 0 C10.14536172 4.97631945 10.28761199 9.95271576 10.42724609 14.92919922 C10.47493867 16.61444369 10.5234133 18.29966625 10.57275391 19.98486328 C10.7384626 25.65615878 10.8813387 31.32752433 11 37 C11.02658691 38.18045898 11.02658691 38.18045898 11.05371094 39.38476562 C11.09956051 41.62110179 11.13055903 43.85710183 11.15625 46.09375 C11.17494141 47.37958984 11.19363281 48.66542969 11.21289062 49.99023438 C11 53 11 53 9 55 C5.5 55.3125 5.5 55.3125 2 55 C-0.20348536 51.69477196 -0.24563385 50.72339001 -0.22705078 46.88598633 C-0.22689972 45.84513382 -0.22674866 44.80428131 -0.22659302 43.73188782 C-0.21627045 42.60993515 -0.20594788 41.48798248 -0.1953125 40.33203125 C-0.1924826 39.18208176 -0.18965271 38.03213226 -0.18673706 36.84733582 C-0.17552833 33.16895204 -0.15042224 29.49081038 -0.125 25.8125 C-0.11497111 23.32096705 -0.1058451 20.8294303 -0.09765625 18.33789062 C-0.07558673 12.22517759 -0.04210224 6.11260609 0 0 Z"/>
<path transform="translate(1036,1028)" fill="#FDFBFD" d="M0 0 C0.9075 0.185625 1.815 0.37125 2.75 0.5625 C5.75660854 0.96723576 7.1880462 0.82524731 10 0 C10.05057791 7.65377999 10.08568184 15.30751713 10.10986328 22.96142578 C10.11994064 25.56691091 10.1336027 28.17238469 10.15087891 30.77783203 C10.17505102 34.51597899 10.1864656 38.25397685 10.1953125 41.9921875 C10.20563507 43.16304901 10.21595764 44.33391052 10.22659302 45.54025269 C10.22674408 46.62122223 10.22689514 47.70219177 10.22705078 48.81591797 C10.231492 49.77078094 10.23593323 50.72564392 10.24050903 51.70944214 C10 54 10 54 8 56 C2.77940593 56.55538235 2.77940593 56.55538235 0.32414246 54.80583191 C-1.47409315 52.35344378 -1.32776552 50.81720775 -1.2487793 47.79418945 C-1.22853195 46.73331619 -1.20828461 45.67244293 -1.18742371 44.579422 C-1.15006607 43.43559555 -1.11270844 42.2917691 -1.07421875 41.11328125 C-1.04777786 39.94113571 -1.02133698 38.76899017 -0.99409485 37.56132507 C-0.90620448 33.81120605 -0.79709645 30.06204143 -0.6875 26.3125 C-0.62425469 23.77282085 -0.56238821 21.23310695 -0.50195312 18.69335938 C-0.35064281 12.46174796 -0.181901 6.23078941 0 0 Z"/>
<path transform="translate(1340,696)" fill="#FBF5FC" d="M0 0 C-0.33 3.63 -0.66 7.26 -1 11 C-14.86 11 -28.72 11 -43 11 C-42.67 9.02 -42.34 7.04 -42 5 C-42.3577614 2.72349255 -42.3577614 2.72349255 -43 1 C-37.84052331 0.85653282 -32.68101822 0.71415053 -27.52148438 0.57275391 C-25.76789551 0.52454639 -24.01431463 0.47604742 -22.26074219 0.42724609 C-19.73374464 0.35697204 -17.2067198 0.28776158 -14.6796875 0.21875 C-13.90132538 0.19687622 -13.12296326 0.17500244 -12.3210144 0.15246582 C-8.21245693 0.04135575 -4.11057623 -0.0228683 0 0 Z"/>
<path transform="translate(1318,770)" fill="#FBF8FB" d="M0 0 C7.26 0 14.52 0 22 0 C22 3.3 22 6.6 22 10 C14.41 10 6.82 10 -1 10 C-0.67 6.7 -0.34 3.4 0 0 Z"/>
<path transform="translate(1142.5,934.0625)" fill="#090109" d="M0 0 C3.5 0.9375 3.5 0.9375 5.5 3.125 C6.74321031 6.62152901 6.62553449 8.41082525 5.5 11.9375 C3.875 14.375 3.875 14.375 1.5 15.9375 C-2.00066452 15.87608483 -4.43130044 15.64996637 -7.375 13.6875 C-8.88463345 11.3391813 -9.36663055 9.73825852 -9.5 6.9375 C-7.32728257 2.26615753 -5.40150883 -0.09645551 0 0 Z"/>
<path transform="translate(1290.5,694.5)" fill="#0C060C" d="M0 0 C3.59882168 0.51411738 5.09433857 0.81676225 7.5 3.5 C8.4375 5.875 8.4375 5.875 8.5 8.5 C6.30597015 13.09701493 6.30597015 13.09701493 3.5 14.5 C0.26119319 14.78163537 -1.86670091 14.80809145 -4.8125 13.375 C-7.18152223 10.74275308 -7.5 9.02397438 -7.5 5.5 C-5.45265455 1.57592123 -4.42111074 0.63158725 0 0 Z"/>
<path transform="translate(1046,1016)" fill="#020102" d="M0 0 C2.32579101 3.48868651 2.41865457 4.89718519 2 9 C0.53937111 11.84438258 -0.39850468 12.76256764 -3.375 13.9375 C-6.76785009 14.01828215 -8.31700046 13.01224965 -11 11 C-12.40457737 8.19084526 -12.24895157 6.11189466 -12 3 C-8.84346923 -2.56150659 -5.55615687 -2.36432207 0 0 Z"/>
<path transform="translate(1119,995)" fill="#010101" d="M0 0 C2.32579101 3.48868651 2.41865457 4.89718519 2 9 C0.53937111 11.84438258 -0.39850468 12.76256764 -3.375 13.9375 C-6.76785009 14.01828215 -8.31700046 13.01224965 -11 11 C-12.40457737 8.19084526 -12.24895157 6.11189466 -12 3 C-8.84346923 -2.56150659 -5.55615687 -2.36432207 0 0 Z"/>
<path transform="translate(1068,900)" fill="#020202" d="M0 0 C2.32579101 3.48868651 2.41865457 4.89718519 2 9 C0.53937111 11.84438258 -0.39850468 12.76256764 -3.375 13.9375 C-6.76785009 14.01828215 -8.31700046 13.01224965 -11 11 C-12.40457737 8.19084526 -12.24895157 6.11189466 -12 3 C-8.84346923 -2.56150659 -5.55615687 -2.36432207 0 0 Z"/>
<path transform="translate(1314,768)" fill="#050205" d="M0 0 C2.84438258 1.46062889 3.76256764 2.39850468 4.9375 5.375 C5.01828215 8.76785009 4.01224965 10.31700046 2 13 C-0.80915474 14.40457737 -2.88810534 14.24895157 -6 14 C-8.84438258 12.53937111 -9.76256764 11.60149532 -10.9375 8.625 C-11.01828215 5.23214991 -10.01224965 3.68299954 -8 1 C-5.19084526 -0.40457737 -3.11189466 -0.24895157 0 0 Z"/>
<path transform="translate(1198,745)" fill="#0B050B" d="M0 0 C2.84438258 1.46062889 3.76256764 2.39850468 4.9375 5.375 C5.01828215 8.76785009 4.01224965 10.31700046 2 13 C-0.80915474 14.40457737 -2.88810534 14.24895157 -6 14 C-8.84438258 12.53937111 -9.76256764 11.60149532 -10.9375 8.625 C-11.01828215 5.23214991 -10.01224965 3.68299954 -8 1 C-5.19084526 -0.40457737 -3.11189466 -0.24895157 0 0 Z"/>
<path transform="translate(559,810)" fill="#F8F7F9" d="M0 0 C0.66 0 1.32 0 2 0 C2.83211276 5.03854106 3.1078534 9.8125662 3.0625 14.9375 C3.05798828 15.62134766 3.05347656 16.30519531 3.04882812 17.00976562 C3.0371956 18.67321604 3.01926694 20.3366205 3 22 C1.02 22 -0.96 22 -3 22 C-2.45298368 14.55769906 -1.45801591 7.31839056 0 0 Z"/>
<path transform="translate(600,796)" fill="#F8F7F9" d="M0 0 C0.33 0 0.66 0 1 0 C1 11.88 1 23.76 1 36 C0.34 36 -0.32 36 -1 36 C-1.02468447 31.19450253 -1.04285255 26.38904182 -1.05493164 21.58349609 C-1.05996621 19.94807289 -1.06679427 18.3126542 -1.07543945 16.67724609 C-1.08754335 14.32909025 -1.093237 11.98099381 -1.09765625 9.6328125 C-1.10281754 8.89942657 -1.10797882 8.16604065 -1.11329651 7.41043091 C-1.11387171 2.22774341 -1.11387171 2.22774341 0 0 Z"/>
<path transform="translate(592,817)" fill="#F8F7F9" d="M0 0 C0.33 0 0.66 0 1 0 C1.3690205 10.55808656 1.3690205 10.55808656 -1 15 C-1.66 15 -2.32 15 -3 15 C-3.35050464 9.158256 -3.16727335 5.1468192 0 0 Z"/>
<path transform="translate(1311.5625,771.9375)" fill="#E7D2E8" d="M0 0 C1.2065625 0.0309375 1.2065625 0.0309375 2.4375 0.0625 C2.4375 2.0425 2.4375 4.0225 2.4375 6.0625 C0.4575 6.0625 -1.5225 6.0625 -3.5625 6.0625 C-3.605221 4.39638095 -3.60313832 2.72867115 -3.5625 1.0625 C-2.5625 0.0625 -2.5625 0.0625 0 0 Z"/>
<path transform="translate(1195.5625,748.9375)" fill="#E9E7E9" d="M0 0 C1.2065625 0.0309375 1.2065625 0.0309375 2.4375 0.0625 C2.4375 2.0425 2.4375 4.0225 2.4375 6.0625 C0.4575 6.0625 -1.5225 6.0625 -3.5625 6.0625 C-3.605221 4.39638095 -3.60313832 2.72867115 -3.5625 1.0625 C-2.5625 0.0625 -2.5625 0.0625 0 0 Z"/>
<path transform="translate(1038,1019)" fill="#F3DFF4" d="M0 0 C1.65 0 3.3 0 5 0 C5.33 1.65 5.66 3.3 6 5 C4.34385343 5.38218767 2.67542976 5.71395102 1 6 C0 5 0 5 -0.0625 2.4375 C-0.041875 1.633125 -0.02125 0.82875 0 0 Z"/>
<path transform="translate(1111,998)" fill="#EFD8F0" d="M0 0 C1.65 0 3.3 0 5 0 C5.33 1.65 5.66 3.3 6 5 C4.34385343 5.38218767 2.67542976 5.71395102 1 6 C0 5 0 5 -0.0625 2.4375 C-0.041875 1.633125 -0.02125 0.82875 0 0 Z"/>
<path transform="translate(1060,903)" fill="#FBFAFB" d="M0 0 C1.65 0 3.3 0 5 0 C5.33 1.65 5.66 3.3 6 5 C4.34385343 5.38218767 2.67542976 5.71395102 1 6 C0 5 0 5 -0.0625 2.4375 C-0.041875 1.633125 -0.02125 0.82875 0 0 Z"/>
<path transform="translate(1289,699)" fill="#E7D3E8" d="M0 0 C1.67542976 0.28604898 3.34385343 0.61781233 5 1 C4.67 2.65 4.34 4.3 4 6 C2.35 6 0.7 6 -1 6 C-1.042721 4.33388095 -1.04063832 2.66617115 -1 1 C-0.67 0.67 -0.34 0.34 0 0 Z"/>
<path transform="translate(1139,939)" fill="#E2CCE3" d="M0 0 C1.65 0.33 3.3 0.66 5 1 C4.67 2.65 4.34 4.3 4 6 C2.35 5.67 0.7 5.34 -1 5 C-0.67 3.35 -0.34 1.7 0 0 Z"/>
<path transform="translate(580,772)" fill="#F8F7F9" d="M0 0 C3.26566506 4.89849759 3.09311493 8.31998909 3 14 C2.01 13.67 1.02 13.34 0 13 C0 8.71 0 4.42 0 0 Z"/>
<path transform="translate(532,820)" fill="#F8F7F9" d="M0 0 C1.04211409 3.12634226 0.99926113 4.04848841 0.25 7.125 C0.01023437 8.18074219 0.01023437 8.18074219 -0.234375 9.2578125 C-0.48703125 9.83273437 -0.7396875 10.40765625 -1 11 C-1.99 11.33 -2.98 11.66 -4 12 C-3.45660208 7.43545749 -2.20536179 4.0271824 0 0 Z"/>
<path transform="translate(614,670)" fill="#F8F7F9" d="M0 0 C0.33 0 0.66 0 1 0 C1 6.27 1 12.54 1 19 C0.67 19 0.34 19 0 19 C0 12.73 0 6.46 0 0 Z"/>
<path transform="translate(617,819)" fill="#F8F7F9" d="M0 0 C0.66 0.66 1.32 1.32 2 2 C1.625 5.625 1.625 5.625 1 9 C0.67 9 0.34 9 0 9 C0 6.03 0 3.06 0 0 Z"/>
<path transform="translate(579,827)" fill="#F8F7F9" d="M0 0 C0.99 0.33 1.98 0.66 3 1 C3 2.32 3 3.64 3 5 C2.01 5 1.02 5 0 5 C0 3.35 0 1.7 0 0 Z"/>
<path transform="translate(546,826)" fill="#F8F7F9" d="M0 0 C0.33 0 0.66 0 1 0 C1 1.98 1 3.96 1 6 C0.01 6 -0.98 6 -2 6 C-1.34 4.02 -0.68 2.04 0 0 Z"/>
<path transform="translate(584,758)" fill="#F8F7F9" d="M0 0 C0.33 1.32 0.66 2.64 1 4 C0.34 3.34 -0.32 2.68 -1 2 C-0.67 1.34 -0.34 0.68 0 0 Z"/>
<path transform="translate(0,0)" fill="#FFFFFF" d=""/>
<path transform="translate(0,0)" fill="#F8F7F9" d=""/>
<path transform="translate(0,0)" fill="#F8F7F9" d=""/>
<path transform="translate(0,0)" fill="#F8F7F9" d=""/>
<path transform="translate(0,0)" fill="#F8F7F9" d=""/>
</svg>