<?xml version="1.0" encoding="UTF-8"?>
<svg xmlns="http://www.w3.org/2000/svg" version="1.1" viewBox="0 0 800 700" style="max-height: 500px" width="73" height="73">
<path d="M0 0 C1.82561462 0.00456207 1.82561462 0.00456207 3.68811035 0.00921631 C23.22653604 0.08113572 42.19002157 0.95952169 61.4375 4.4375 C62.6140918 4.64648926 63.79068359 4.85547852 65.00292969 5.07080078 C115.57233585 14.35182322 165.48853422 33.40462862 207.4375 63.4375 C208.13649414 63.93717285 208.83548828 64.4368457 209.55566406 64.95166016 C219.88813438 72.36836297 229.91565406 80.00314244 239.4375 88.4375 C240.33597656 89.22511719 241.23445312 90.01273437 242.16015625 90.82421875 C249.02698828 96.9763594 255.57905263 103.44747164 262.125 109.9375 C263.44371094 111.2366333 263.44371094 111.2366333 264.7890625 112.56201172 C270.77489071 118.53996384 276.17354877 124.82051121 281.4375 131.4375 C282.4619984 132.68073562 283.4889641 133.92194659 284.51953125 135.16015625 C295.87963111 148.98313389 305.50030653 163.95852938 314.4375 179.4375 C314.83678711 180.12247559 315.23607422 180.80745117 315.64746094 181.51318359 C337.98432863 219.98804587 353.75340092 264.97423519 357.4375 309.4375 C358.0975 309.4375 358.7575 309.4375 359.4375 309.4375 C359.4375 342.4375 359.4375 375.4375 359.4375 409.4375 C358.1175 409.7675 356.7975 410.0975 355.4375 410.4375 C355.30287354 411.13383545 355.16824707 411.8301709 355.02954102 412.54760742 C348.47740985 445.9175108 338.4514013 478.46004173 322.41455078 508.58496094 C321.38515467 510.53674947 320.39216013 512.5044319 319.40234375 514.4765625 C308.87763486 535.21379645 295.41402975 554.67463913 280.4375 572.4375 C279.27347656 573.87996094 279.27347656 573.87996094 278.0859375 575.3515625 C271.17936047 583.79702643 263.56495183 591.52585428 255.875 599.25 C255.34447021 599.78570618 254.81394043 600.32141235 254.26733398 600.87335205 C247.32682953 607.86715023 240.18053901 614.32287491 232.4375 620.4375 C231.17099388 621.4739003 229.90640164 622.51264794 228.64453125 623.5546875 C211.72372854 637.36126199 193.40087472 648.84368245 174.4375 659.625 C173.76074219 660.01187988 173.08398438 660.39875977 172.38671875 660.79736328 C167.6790638 663.4375 167.6790638 663.4375 165.4375 663.4375 C165.293125 664.076875 165.14875 664.71625 165 665.375 C164.4375 667.4375 164.4375 667.4375 163.4375 668.4375 C161.58125 668.5303125 161.58125 668.5303125 159.6875 668.625 C153.94168281 669.16164637 149.27410804 671.61813343 144.16015625 674.16015625 C141.4375 675.4375 141.4375 675.4375 139.4375 675.4375 C139.47875 676.22125 139.52 677.005 139.5625 677.8125 C139.4375 680.4375 139.4375 680.4375 137.4375 682.4375 C133.9375 682.6875 133.9375 682.6875 130.4375 682.4375 C129.7775 681.7775 129.1175 681.1175 128.4375 680.4375 C126.95636719 680.97890625 126.95636719 680.97890625 125.4453125 681.53125 C124.15110209 682.00016681 122.85682794 682.46890769 121.5625 682.9375 C120.91152344 683.17597656 120.26054687 683.41445313 119.58984375 683.66015625 C114.6640625 685.4375 114.6640625 685.4375 112.4375 685.4375 C112.499375 687.355625 112.499375 687.355625 112.5625 689.3125 C112.6328125 691.4921875 112.6328125 691.4921875 112.4375 693.4375 C110.4375 695.4375 110.4375 695.4375 107.4375 695.6875 C104.4375 695.4375 104.4375 695.4375 102.4375 693.4375 C102.3125 690.8125 102.3125 690.8125 102.4375 688.4375 C101.53386719 688.72625 100.63023437 689.015 99.69921875 689.3125 C98.51972656 689.68375 97.34023438 690.055 96.125 690.4375 C94.95324219 690.80875 93.78148437 691.18 92.57421875 691.5625 C89.4375 692.4375 89.4375 692.4375 86.4375 692.4375 C86.47875 693.22125 86.52 694.005 86.5625 694.8125 C86.4375 697.4375 86.4375 697.4375 84.4375 699.4375 C81.3125 699.5625 81.3125 699.5625 78.4375 699.4375 C77.7775 698.1175 77.1175 696.7975 76.4375 695.4375 C73.1375 696.0975 69.8375 696.7575 66.4375 697.4375 C66.1075 698.4275 65.7775 699.4175 65.4375 700.4375 C51.24907772 700.53174541 37.0607053 700.60159826 22.87203217 700.64474869 C16.28111287 700.66547604 9.6904063 700.69351701 3.09960938 700.73925781 C-3.28063497 700.78325184 -9.66067688 700.8067482 -16.0410614 700.81700897 C-18.45508504 700.8243055 -20.8690997 700.83854807 -23.28303528 700.86042023 C-39.46151191 701.00095692 -54.70022764 699.64917275 -70.5625 696.4375 C-71.63559355 696.22438974 -71.63559355 696.22438974 -72.73036575 696.00697422 C-76.37943909 695.27927194 -80.00504195 694.48594475 -83.625 693.625 C-85.23592529 693.24444458 -85.23592529 693.24444458 -86.87939453 692.85620117 C-128.05438141 682.91521853 -168.90484998 666.0587692 -203.5625 641.4375 C-204.67290545 640.66367257 -205.78359845 639.89025766 -206.89453125 639.1171875 C-214.75688808 633.60949678 -222.40200743 627.84746882 -229.86523438 621.81005859 C-231.45052864 620.52804991 -233.04523757 619.25770755 -234.640625 617.98828125 C-243.2264746 610.99225485 -251.03300914 603.17923354 -258.875 595.375 C-259.43489624 594.82037079 -259.99479248 594.26574158 -260.57165527 593.69430542 C-267.70852648 586.60934586 -274.32395743 579.34219281 -280.5625 571.4375 C-281.58646116 570.19382185 -282.61339883 568.95258271 -283.64453125 567.71484375 C-294.53069983 554.46854604 -303.87644247 540.17190383 -312.45605469 525.34033203 C-313.19868711 524.06317468 -313.94947487 522.79072743 -314.70800781 521.52294922 C-327.47281847 500.17929449 -336.38396357 476.83513593 -344.44140625 453.38671875 C-345.98350671 448.92268791 -347.72629992 444.65108286 -349.79467773 440.40576172 C-350.92462634 437.50921301 -351.00737492 434.67706986 -351.21875 431.6015625 C-351.59561079 429.2290525 -352.339467 427.80294825 -353.5625 425.75 C-356.22235985 420.99478293 -356.1341367 416.15558633 -356.2890625 410.8046875 C-356.56882204 407.35964853 -357.45397977 404.69510543 -358.5625 401.4375 C-358.86192888 399.17485912 -359.09127163 396.90184139 -359.25 394.625 C-359.37955078 392.91376953 -359.37955078 392.91376953 -359.51171875 391.16796875 C-359.52847656 390.26691406 -359.54523438 389.36585938 -359.5625 388.4375 C-359.2325 388.1075 -358.9025 387.7775 -358.5625 387.4375 C-358.4689081 385.71884591 -358.44505389 383.99634256 -358.44897461 382.27514648 C-358.44905014 381.17408066 -358.44912567 380.07301483 -358.44920349 378.93858337 C-358.45436478 377.7406868 -358.45952606 376.54279022 -358.46484375 375.30859375 C-358.4662587 374.08922623 -358.46767365 372.8698587 -358.46913147 371.61354065 C-358.47475033 367.7006693 -358.48730604 363.78785419 -358.5 359.875 C-358.50501257 357.22981853 -358.5095759 354.58463617 -358.51367188 351.93945312 C-358.52472589 345.43878274 -358.54148236 338.93814539 -358.5625 332.4375 C-359.2225 332.4375 -359.8825 332.4375 -360.5625 332.4375 C-360.92770833 321.31893519 -359.79473906 310.47264084 -358.5625 299.4375 C-357.5725 299.1075 -356.5825 298.7775 -355.5625 298.4375 C-355.52511719 297.13554687 -355.48773438 295.83359375 -355.44921875 294.4921875 C-355.38353326 292.76559743 -355.31708682 291.03903619 -355.25 289.3125 C-355.22744141 288.4565625 -355.20488281 287.600625 -355.18164062 286.71875 C-354.95988728 281.47730728 -354.15701492 278.08420843 -351.5625 273.4375 C-349.18372221 267.20879424 -347.43048462 260.72991415 -345.50585938 254.35131836 C-341.48290665 241.09520277 -337.04970688 228.16930658 -331.5625 215.4375 C-331.22814941 214.64150391 -330.89379883 213.84550781 -330.54931641 213.02539062 C-319.68438592 187.20508167 -305.17098998 162.25279646 -287.5625 140.4375 C-286.91023438 139.60476562 -286.25796875 138.77203125 -285.5859375 137.9140625 C-283.60680101 135.39738277 -281.58969923 132.915602 -279.5625 130.4375 C-278.82 129.50808594 -278.0775 128.57867187 -277.3125 127.62109375 C-270.23591607 118.95292848 -262.38759666 111.04623661 -254.5 103.125 C-253.9456427 102.56546631 -253.3912854 102.00593262 -252.82012939 101.42944336 C-245.73696996 94.29425762 -238.48593726 87.64994408 -230.5625 81.4375 C-229.80251709 80.8288208 -229.04253418 80.2201416 -228.25952148 79.59301758 C-218.36410237 71.67557479 -208.29265094 64.18541711 -197.5625 57.4375 C-196.6967334 56.89198486 -196.6967334 56.89198486 -195.81347656 56.33544922 C-191.45007196 53.6086269 -187.02400534 51.00017094 -182.5625 48.4375 C-181.77020996 47.98117188 -180.97791992 47.52484375 -180.16162109 47.0546875 C-145.39051424 27.18168813 -108.12535378 13.89749405 -68.875 6.125 C-67.15325562 5.77961182 -67.15325562 5.77961182 -65.39672852 5.42724609 C-43.69458634 1.33963195 -22.05558682 -0.11783693 0 0 Z " fill="#512888" transform="translate(360.5625,-0.43750000000000006)"/>
<path d="M0 0 C0.79964707 0.00562202 1.59929415 0.01124405 2.42317295 0.01703644 C3.27499433 0.01516075 4.1268157 0.01328506 5.00444984 0.01135254 C7.91567486 0.00763268 10.82666542 0.01861224 13.73787022 0.02948761 C15.86990943 0.03035016 18.00194909 0.03042162 20.13398838 0.02977753 C26.09282399 0.03095882 32.05156452 0.04563917 38.01037312 0.06272125 C43.08802062 0.07575043 48.16566617 0.08131934 53.24332619 0.08716011 C138.28487012 0.19114872 223.32678274 0.77042103 308.36677647 1.25995636 C308.97308624 6.79706876 309.49187033 12.2629897 309.496171 17.8395462 C309.49932316 19.02712524 309.50247532 20.21470428 309.505723 21.43827057 C309.50268665 23.3106691 309.50268665 23.3106691 309.49958897 25.22089386 C309.50102406 27.18308365 309.50102406 27.18308365 309.50248814 29.18491364 C309.50395128 31.93308463 309.50185341 34.68122281 309.49714756 37.42938995 C309.49141713 40.94644174 309.49475882 44.46341775 309.50072002 47.98046684 C309.50520138 51.35228194 309.50206589 54.72407661 309.49958897 58.09589386 C309.5016132 59.35630493 309.50363743 60.616716 309.505723 61.91532135 C309.50257084 63.08398743 309.49941868 64.2526535 309.496171 65.4567337 C309.49497761 66.99700729 309.49497761 66.99700729 309.49376011 68.56839752 C309.38012415 70.97703745 308.98804934 72.9471783 308.36677647 75.25995636 C272.83389451 75.42878774 237.30098906 75.59232903 201.76805991 75.75091201 C199.7478974 75.75992904 197.72773493 75.76895554 195.70757246 75.77798223 C129.73994985 76.07256131 63.77270328 76.36599269 -2.19572353 76.32245636 C-3.50295628 76.32160034 -4.81018902 76.32074432 -6.15703487 76.31986237 C-20.98244882 76.30935835 -35.80783816 76.29098108 -50.63322353 76.25995636 C-50.00520869 74.67282119 -49.37547941 73.08636435 -48.74503994 71.50019073 C-48.39454586 70.61665924 -48.04405178 69.73312775 -47.68293667 68.82282257 C-46.27548007 65.38652857 -44.68876747 62.06945625 -43.00822353 58.75995636 C-42.66758877 58.0869046 -42.326954 57.41385284 -41.97599697 56.72040558 C-13.04835996 0.07587423 -13.04835996 0.07587423 0 0 Z " fill="#F7F5F8" transform="translate(80.63322353363037,137.74004364013672)"/>
<path d="M0 0 C29.66666141 -0.03093305 59.33332468 -0.05107954 89 -0.0625 C90.64392739 -0.06315145 90.64392739 -0.06315145 92.32106543 -0.06381607 C149.90344024 -0.0860203 207.48234638 -0.04274771 265.0625 0.5 C266.33222656 0.51195782 267.60195313 0.52391563 268.91015625 0.53623581 C283.60693971 0.67592359 298.30355104 0.82869394 313 1 C314.009169 8.99811388 314.1458736 16.90665707 314.1328125 24.9609375 C314.13424759 26.92312729 314.13424759 26.92312729 314.13571167 28.92495728 C314.13717482 31.67312827 314.13507694 34.42126645 314.13037109 37.16943359 C314.12464066 40.68648538 314.12798236 44.20346139 314.13394356 47.72051048 C314.13842491 51.09232558 314.13528942 54.46412025 314.1328125 57.8359375 C314.13483673 59.09634857 314.13686096 60.35675964 314.13894653 61.65536499 C314.13579437 62.82403107 314.13264221 63.99269714 314.12939453 65.19677734 C314.12820114 66.73705093 314.12820114 66.73705093 314.12698364 68.30844116 C314.01334768 70.71708109 313.62127287 72.68722194 313 75 C295.47933275 75.18495942 277.95848895 75.34878455 260.4375 75.5 C259.40717447 75.50892281 259.40717447 75.50892281 258.35603428 75.51802588 C197.36265818 76.04453461 136.3703357 76.08599905 75.375 76.0625 C74.24138078 76.06207577 73.10776156 76.06165154 71.93979025 76.06121445 C42.62651883 76.05005995 13.31325827 76.02983215 -16 76 C-16.01191402 73.9509421 -16.02034387 71.90186378 -16.02734375 69.8527832 C-16.03241943 68.71170609 -16.03749512 67.57062897 -16.04272461 66.39497375 C-15.98264767 61.62115262 -15.53514296 56.92785415 -15 52.1875 C-14.90460937 51.29224609 -14.80921875 50.39699219 -14.7109375 49.47460938 C-14.48004311 47.3157468 -14.2409467 45.15776378 -14 43 C-12.515 42.505 -12.515 42.505 -11 42 C-10.96261719 40.69804687 -10.92523437 39.39609375 -10.88671875 38.0546875 C-10.82103326 36.32809743 -10.75458682 34.60153619 -10.6875 32.875 C-10.65366211 31.59109375 -10.65366211 31.59109375 -10.61914062 30.28125 C-10.39937489 25.08678729 -9.66664969 21.5780828 -7 17 C-6.42177602 15.45065625 -5.8756209 13.88863062 -5.375 12.3125 C-5.13523437 11.56613281 -4.89546875 10.81976563 -4.6484375 10.05078125 C-4.43445312 9.37402344 -4.22046875 8.69726562 -4 8 C-3.67 7.01 -3.34 6.02 -3 5 C-2.34 4.67 -1.68 4.34 -1 4 C-0.34786708 1.97536745 -0.34786708 1.97536745 0 0 Z " fill="#F7F5F8" transform="translate(16,256)"/>
<path d="M0 0 C15.58332288 -0.0322054 31.16664792 -0.05149901 46.75 -0.0625 C48.5553421 -0.06378403 48.5553421 -0.06378403 50.39715576 -0.06509399 C97.93303908 -0.09477375 145.46547248 0.16003754 193 0.5 C194.25489385 0.50896057 194.25489385 0.50896057 195.53513908 0.51810217 C217.02348028 0.67167963 238.51176601 0.83208087 260 1 C260.60630977 6.5371124 261.12509386 12.00303334 261.12939453 17.57958984 C261.13254669 18.76716888 261.13569885 19.95474792 261.13894653 21.17831421 C261.13591019 23.05071274 261.13591019 23.05071274 261.1328125 24.9609375 C261.13424759 26.92312729 261.13424759 26.92312729 261.13571167 28.92495728 C261.13717482 31.67312827 261.13507694 34.42126645 261.13037109 37.16943359 C261.12464066 40.68648538 261.12798236 44.20346139 261.13394356 47.72051048 C261.13842491 51.09232558 261.13528942 54.46412025 261.1328125 57.8359375 C261.13483673 59.09634857 261.13686096 60.35675964 261.13894653 61.65536499 C261.13579437 62.82403107 261.13264221 63.99269714 261.12939453 65.19677734 C261.12820114 66.73705093 261.12820114 66.73705093 261.12698364 68.30844116 C261.01334768 70.71708109 260.62127287 72.68722194 260 75 C237.83572151 75.13284945 215.67142989 75.26329122 193.50712204 75.39115143 C183.20705264 75.45062126 172.90698827 75.51078145 162.60693359 75.57275391 C112.73740727 75.8723877 62.87049822 76.08601708 13 76 C12.00521514 73.77142596 11.01969494 71.53948109 10.0390625 69.3046875 C9.75812744 68.67780029 9.47719238 68.05091309 9.18774414 67.4050293 C7.33559654 63.15925167 6.4910866 59.56728337 6.2734375 54.98828125 C5.95660828 52.68448023 5.18251772 51.30432949 4 49.3125 C1.34014015 44.55728293 1.4283633 39.71808633 1.2734375 34.3671875 C0.99367796 30.92214853 0.10852023 28.25760543 -1 25 C-1.29942888 22.73735912 -1.52877163 20.46434139 -1.6875 18.1875 C-1.77386719 17.04667969 -1.86023438 15.90585937 -1.94921875 14.73046875 C-1.96597656 13.82941406 -1.98273437 12.92835938 -2 12 C-1.67 11.67 -1.34 11.34 -1 11 C-0.76636119 9.15108054 -0.58696365 7.29511969 -0.4375 5.4375 C-0.35371094 4.42558594 -0.26992188 3.41367187 -0.18359375 2.37109375 C-0.12300781 1.58863281 -0.06242188 0.80617188 0 0 Z " fill="#F7F6F8" transform="translate(3,376)"/>
<path d="M0 0 C0.495 1.485 0.495 1.485 1 3 C0.46632813 3.23074219 -0.06734375 3.46148437 -0.6171875 3.69921875 C-10.81468825 7.92640082 -10.81468825 7.92640082 -20.16796875 13.65234375 C-22 15 -22 15 -24 15 C-24.26167969 15.58265625 -24.52335937 16.1653125 -24.79296875 16.765625 C-26.44333978 19.82068076 -28.69085198 22.08504617 -31.05078125 24.609375 C-41.75319357 37.73537968 -48.29159451 54.86285797 -52.49414062 71.08935547 C-54.55322813 78.86658462 -57.06379898 86.5126874 -60 94 C-62.97 94 -65.94 94 -69 94 C-70.49891767 89.50324699 -71.06440659 86.0194832 -70.953125 81.234375 C-71.14395561 72.13811572 -73.40447159 63.75896152 -79.75 57.125 C-80.86375 56.073125 -80.86375 56.073125 -82 55 C-82 54.34 -82 53.68 -82 53 C-75.69551854 53.15761204 -72.18412011 56.67607635 -68 61 C-67.67 61.66 -67.34 62.32 -67 63 C-65.53203916 59.19664692 -64.13552556 55.49692705 -63.0625 51.5625 C-61.29889786 45.64924576 -59.42117924 40.36577599 -55 36 C-53.95918671 34.40083375 -52.9617186 32.77294488 -52 31.125 C-51.505 30.28195312 -51.01 29.43890625 -50.5 28.5703125 C-49.51070106 26.87510754 -48.54135882 25.16807586 -47.59375 23.44921875 C-45.82988336 20.73857076 -43.91869086 18.82804141 -41.5 16.6875 C-40.7265625 15.99011719 -39.953125 15.29273438 -39.15625 14.57421875 C-37 13 -37 13 -34 13 C-33.67 12.01 -33.34 11.02 -33 10 C-24.03760174 4.16732812 -10.83369941 -0.69894835 0 0 Z " fill="#CCCACD" transform="translate(447,256)"/>
<path d="M0 0 C0.495 1.485 0.495 1.485 1 3 C0.46632813 3.23074219 -0.06734375 3.46148437 -0.6171875 3.69921875 C-10.81468825 7.92640082 -10.81468825 7.92640082 -20.16796875 13.65234375 C-22 15 -22 15 -24 15 C-24.26167969 15.58265625 -24.52335937 16.1653125 -24.79296875 16.765625 C-26.44333978 19.82068076 -28.69085198 22.08504617 -31.05078125 24.609375 C-41.75319357 37.73537968 -48.29159451 54.86285797 -52.49414062 71.08935547 C-54.55322813 78.86658462 -57.06379898 86.5126874 -60 94 C-62.97 94 -65.94 94 -69 94 C-70.49891767 89.50324699 -71.06440659 86.0194832 -70.953125 81.234375 C-71.14395561 72.13811572 -73.40447159 63.75896152 -79.75 57.125 C-80.86375 56.073125 -80.86375 56.073125 -82 55 C-82 54.34 -82 53.68 -82 53 C-75.69551854 53.15761204 -72.18412011 56.67607635 -68 61 C-67.67 61.66 -67.34 62.32 -67 63 C-65.53203916 59.19664692 -64.13552556 55.49692705 -63.0625 51.5625 C-61.29889786 45.64924576 -59.42117924 40.36577599 -55 36 C-53.95918671 34.40083375 -52.9617186 32.77294488 -52 31.125 C-51.505 30.28195313 -51.01 29.43890625 -50.5 28.5703125 C-49.51070106 26.87510754 -48.54135882 25.16807586 -47.59375 23.44921875 C-45.82988336 20.73857076 -43.91869086 18.82804141 -41.5 16.6875 C-40.7265625 15.99011719 -39.953125 15.29273438 -39.15625 14.57421875 C-37 13 -37 13 -34 13 C-33.67 12.01 -33.34 11.02 -33 10 C-24.03760174 4.16732812 -10.83369941 -0.69894835 0 0 Z " fill="#CCCACD" transform="translate(525,124)"/>
<path d="M0 0 C0.495 1.485 0.495 1.485 1 3 C0.46632813 3.23074219 -0.06734375 3.46148437 -0.6171875 3.69921875 C-10.81468825 7.92640082 -10.81468825 7.92640082 -20.16796875 13.65234375 C-22 15 -22 15 -24 15 C-24.26167969 15.58265625 -24.52335937 16.1653125 -24.79296875 16.765625 C-26.06647273 19.12304985 -27.48932464 20.79342157 -29.3125 22.75 C-35.76746693 30.00516944 -39.78096165 38.30095186 -44 47 C-44.66 47 -45.32 47 -46 47 C-46.0825 47.886875 -46.165 48.77375 -46.25 49.6875 C-47.46220793 58.0719382 -50.66352819 66.14506642 -53.5625 74.0625 C-55.56866478 79.56865071 -57.12394959 85.05715021 -58.421875 90.76953125 C-59 93 -59 93 -60 94 C-61.51928038 94.07179964 -63.04167482 94.08392007 -64.5625 94.0625 C-65.80193359 94.04896484 -65.80193359 94.04896484 -67.06640625 94.03515625 C-68.02353516 94.01775391 -68.02353516 94.01775391 -69 94 C-70.49891767 89.50324699 -71.06440659 86.0194832 -70.953125 81.234375 C-71.14395561 72.13811572 -73.40447159 63.75896152 -79.75 57.125 C-80.86375 56.073125 -80.86375 56.073125 -82 55 C-82 54.34 -82 53.68 -82 53 C-75.69551854 53.15761204 -72.18412011 56.67607635 -68 61 C-67.67 61.66 -67.34 62.32 -67 63 C-65.53203916 59.19664692 -64.13552556 55.49692705 -63.0625 51.5625 C-61.29889786 45.64924576 -59.42117924 40.36577599 -55 36 C-53.95918671 34.40083375 -52.9617186 32.77294488 -52 31.125 C-51.505 30.28195312 -51.01 29.43890625 -50.5 28.5703125 C-49.51070106 26.87510754 -48.54135882 25.16807586 -47.59375 23.44921875 C-45.82988336 20.73857076 -43.91869086 18.82804141 -41.5 16.6875 C-40.7265625 15.99011719 -39.953125 15.29273438 -39.15625 14.57421875 C-37 13 -37 13 -34 13 C-33.67 12.01 -33.34 11.02 -33 10 C-24.03760174 4.16732812 -10.83369941 -0.69894835 0 0 Z " fill="#CCCACD" transform="translate(378,369)"/>
<path d="M0 0 C0.66 0 1.32 0 2 0 C3.72935184 2.32105246 5.34672711 4.6483735 6.9375 7.0625 C7.81854591 8.38876242 8.702838 9.71287236 9.58984375 11.03515625 C10.06440002 11.77466522 10.5389563 12.51417419 11.02789307 13.27609253 C12.97607172 16.11887119 12.97607172 16.11887119 15.69903564 18.69424438 C26.80051038 30.29227038 25.48205494 44.21615595 25.18119645 59.31161523 C25.11919034 62.99266959 25.11924453 66.67377494 25.11174011 70.35527039 C25.0906998 76.51938695 25.02970911 82.68197898 24.93969727 88.84545898 C24.81275249 97.54467117 24.76166259 106.24317521 24.72401202 114.94316542 C24.69180587 121.708307 24.63774522 128.47329948 24.58203125 135.23828125 C24.57642252 135.96307183 24.57081379 136.6878624 24.5650351 137.43461633 C24.52692512 142.22406664 24.46916064 147.01287516 24.40161133 151.80200195 C24.39152039 153.01489395 24.38142944 154.22778595 24.37103271 155.47743225 C24.35238663 156.57758667 24.33374054 157.67774109 24.31452942 158.81123352 C24.302086 159.77069539 24.28964258 160.73015726 24.27682209 161.71869373 C24 164 24 164 22 166 C19 166.25 19 166.25 16 166 C14 164 14 164 13.75669765 162.01821709 C13.76141126 160.79114131 13.76141126 160.79114131 13.76622009 159.53927612 C13.76426384 158.13101563 13.76426384 158.13101563 13.76226807 156.69430542 C13.77102966 155.6606485 13.77979126 154.62699158 13.78881836 153.56201172 C13.7901326 152.47551331 13.79144684 151.38901489 13.7928009 150.26959229 C13.79932137 146.65620405 13.8197837 143.04302379 13.83984375 139.4296875 C13.84611533 136.91497019 13.85135504 134.40025011 13.85560608 131.88552856 C13.86758271 125.91931384 13.88772666 119.95318648 13.91250378 113.98701584 C13.95925127 102.72100897 13.99250406 91.45498572 14.0170002 80.18890762 C14.02713171 76.50675096 14.04420433 72.82467413 14.06199646 69.14254761 C15.58808152 45.45385538 15.58808152 45.45385538 6.875 24.6875 C5.68917254 23.1853544 4.50556801 21.68145124 3.32421875 20.17578125 C2.46642822 19.11351318 2.46642822 19.11351318 1.59130859 18.02978516 C-1.62897555 13.92216896 -4.29835125 9.46017648 -7 5 C-6.030625 4.54625 -5.06125 4.0925 -4.0625 3.625 C-0.92920418 2.34213779 -0.92920418 2.34213779 0 0 Z " fill="#FBF9FC" transform="translate(449,529)"/>
<path d="M0 0 C2.4461471 0.04115803 4.892374 0.07779723 7.33865356 0.11013794 C13.73509372 0.20670588 20.12860202 0.3640893 26.5234375 0.534729 C33.06574103 0.69834768 39.60896422 0.80365619 46.15234375 0.9140625 C58.95988582 1.13866616 71.76508782 1.42761265 84.5703125 1.7578125 C84.5703125 5.0578125 84.5703125 8.3578125 84.5703125 11.7578125 C83.25423508 11.74004761 81.93815765 11.72228271 80.5821991 11.70397949 C68.15068266 11.54147231 55.71938305 11.42172254 43.28704357 11.34331512 C36.8960699 11.30164866 30.50595691 11.24517422 24.11547852 11.15429688 C17.94271253 11.06706966 11.77077187 11.01947418 5.5974369 10.99879456 C3.24792814 10.98406676 0.89846215 10.95530608 -1.45069313 10.91197205 C-17.78586003 10.16871364 -17.78586003 10.16871364 -31.53656006 17.79838562 C-32.16129211 18.44499649 -32.78602417 19.09160736 -33.4296875 19.7578125 C-34.59138783 20.60122325 -35.77531144 21.41574377 -36.98828125 22.18359375 C-42.42086417 25.69109175 -42.42086417 25.69109175 -47.6484375 29.48828125 C-49.4296875 30.7578125 -49.4296875 30.7578125 -51.4921875 30.7578125 C-54.28077336 29.31854238 -55.15485721 27.5758584 -56.4296875 24.7578125 C-55.00990929 20.49847788 -51.84378069 19.06169013 -48.2421875 16.6953125 C-46.91415683 15.81040362 -45.58738925 14.92359698 -44.26171875 14.03515625 C-43.17950294 13.34133598 -43.17950294 13.34133598 -42.07542419 12.63349915 C-39.33100148 10.77871185 -39.33100148 10.77871185 -36.7893219 8.27690125 C-25.82729091 -1.6410507 -14.06448763 -0.44927293 0 0 Z " fill="#FDFBFD" transform="translate(635.4296875,341.2421875)"/>
<path d="M0 0 C2.375 0.75 2.375 0.75 3.375 1.75 C3.49892394 3.58832659 3.55300414 5.43138538 3.58032227 7.27368164 C3.60025238 8.4707222 3.6201825 9.66776276 3.64071655 10.90107727 C3.65778416 12.23743476 3.6746749 13.57379451 3.69140625 14.91015625 C3.71220687 16.30450424 3.73334267 17.69884726 3.75479126 19.09318542 C3.81128519 22.87798436 3.86065808 26.66284367 3.9078331 30.44776917 C3.93739464 32.80410221 3.96835878 35.16041317 3.99966431 37.51672363 C4.29968843 60.30565286 4.50267481 83.09521371 4.55622482 105.88608932 C4.56250924 108.003111 4.57241008 110.12008836 4.58328247 112.23709106 C4.60277913 116.16328491 4.60530791 120.08938002 4.60546875 124.015625 C4.61260895 125.1831279 4.61974915 126.3506308 4.62710571 127.55351257 C4.6240744 128.61125381 4.62104309 129.66899506 4.61791992 130.75878906 C4.61934494 131.68016663 4.62076996 132.60154419 4.62223816 133.55084229 C4.375 135.75 4.375 135.75 2.375 137.75 C-0.625 138 -0.625 138 -3.625 137.75 C-6.22315482 135.15184518 -5.87807982 134.09812399 -5.88569641 130.48048401 C-5.89278122 129.36298767 -5.89986603 128.24549133 -5.90716553 127.09413147 C-5.90468811 125.86238693 -5.90221069 124.6306424 -5.8996582 123.36157227 C-5.90476913 122.06887421 -5.90988007 120.77617615 -5.91514587 119.44430542 C-5.92856466 115.89265419 -5.92911135 112.34110918 -5.92658257 108.78943753 C-5.92551476 105.82709992 -5.93039139 102.86478397 -5.935188 99.90245098 C-5.94629324 92.91501277 -5.94671496 85.92762832 -5.94067383 78.94018555 C-5.93463271 71.72605458 -5.94694611 64.51211859 -5.9682439 57.2980209 C-5.98584392 51.10943721 -5.99186378 44.92091566 -5.98860615 38.73230785 C-5.9867905 35.03385715 -5.98945727 31.33554549 -6.00332069 27.63711739 C-6.01819732 23.5138897 -6.00894299 19.39106032 -5.99731445 15.26782227 C-6.00495819 14.03810196 -6.01260193 12.80838165 -6.02047729 11.54139709 C-6.01346298 10.42108093 -6.00644867 9.30076477 -5.9992218 8.14649963 C-5.99938954 7.17107491 -5.99955729 6.1956502 -5.99973011 5.19066715 C-5.625 2.75 -5.625 2.75 -4.26567364 0.89709377 C-2.625 -0.25 -2.625 -0.25 0 0 Z " fill="#FCFBFC" transform="translate(442.625,561.25)"/>
<path d="M0 0 C2.5 0.1875 2.5 0.1875 5 1 C7 4 7 4 6.7890625 6.37768555 C5.94544424 9.18130675 4.83766249 11.42205921 3.375 13.95703125 C2.83230469 14.90642578 2.28960937 15.85582031 1.73046875 16.83398438 C1.15941406 17.81689453 0.58835937 18.79980469 0 19.8125 C-1.70185415 22.77551337 -3.39923612 25.73813929 -5.05883789 28.72509766 C-6.4421899 31.05892785 -7.78961907 33.09450016 -9.40795898 35.23974609 C-18.37476078 47.83004053 -17.25842253 62.05972392 -17.08154297 76.91235352 C-17.04949222 80.42602007 -17.0691684 83.9393989 -17.08398438 87.453125 C-17.10549728 94.30263505 -17.07132132 101.1508419 -17 108 C-19.97 108 -22.94 108 -26 108 C-26.14512504 101.92095912 -26.28739677 95.84185986 -26.42724609 89.76269531 C-26.47500186 87.70310755 -26.52348074 85.6435364 -26.57275391 83.58398438 C-26.71437052 77.65342733 -26.83665552 71.722952 -26.94113159 65.79162598 C-26.99741344 63.1226585 -27.08288506 60.45605428 -27.17407227 57.78808594 C-27.21190297 56.19988871 -27.24897766 54.61167322 -27.28515625 53.0234375 C-27.31730225 52.32304352 -27.34944824 51.62264954 -27.38256836 50.90103149 C-27.4947762 43.7847885 -24.17749471 38.53149552 -20.21484375 32.87109375 C-16.5058317 27.37437809 -13.27964662 21.61210595 -10.01223755 15.84790039 C-8.39131203 12.98888666 -6.76165527 10.13521221 -5.125 7.28515625 C-4.57070313 6.31457275 -4.01640625 5.34398926 -3.4453125 4.34399414 C-2 2 -2 2 0 0 Z " fill="#FCFBFD" transform="translate(417,592)"/>
<path d="M0 0 C1.35036598 -0.00422974 1.35036598 -0.00422974 2.72801208 -0.00854492 C3.72337479 -0.00652069 4.71873749 -0.00449646 5.7442627 -0.00241089 C6.78643448 -0.00416321 7.82860626 -0.00591553 8.90235901 -0.00772095 C12.36595295 -0.01214174 15.82949631 -0.00920067 19.29309082 -0.00582886 C21.68823252 -0.00650183 24.08337416 -0.0074718 26.47851562 -0.00872803 C31.5057439 -0.01020531 36.53295444 -0.00804947 41.56018066 -0.00338745 C48.02040773 0.00230985 54.48059325 -0.000969 60.94081879 -0.00695992 C65.88885819 -0.01056471 70.83688767 -0.00942732 75.78492737 -0.00683212 C78.16768905 -0.00616263 80.55045163 -0.00699206 82.93321228 -0.00931168 C86.25697231 -0.01183687 89.58066404 -0.00799949 92.90441895 -0.00241089 C93.89978165 -0.00443512 94.89514435 -0.00645935 95.92066956 -0.00854492 C96.82091354 -0.0057251 97.72115753 -0.00290527 98.64868164 0 C99.43551582 0.00037703 100.22235001 0.00075405 101.03302765 0.0011425 C102.82434082 0.12698364 102.82434082 0.12698364 103.82434082 1.12698364 C103.89614046 2.64626402 103.90826089 4.16865846 103.88684082 5.68948364 C103.87781738 6.51577271 103.86879395 7.34206177 103.85949707 8.19338989 C103.84789551 8.83147583 103.83629395 9.46956177 103.82434082 10.12698364 C80.06338116 10.27152855 56.3049976 10.11076253 32.54592896 9.80859375 C29.4753022 9.76977695 26.40467671 9.73563315 23.33395386 9.7053833 C19.66808966 9.66891948 16.0024755 9.62267813 12.33682442 9.56898308 C10.96647811 9.55046343 9.59608198 9.53530441 8.22566032 9.52362251 C6.33934188 9.50687374 4.45315667 9.47670928 2.5670166 9.4458313 C1.50185822 9.43250763 0.43669983 9.41918396 -0.66073608 9.40545654 C-3.17565918 9.12698364 -3.17565918 9.12698364 -5.17565918 7.12698364 C-5.36315918 4.06448364 -5.36315918 4.06448364 -5.17565918 1.12698364 C-3.62391472 -0.42476081 -2.15977942 0.0010349 0 0 Z " fill="#FEFDFE" transform="translate(616.1756591796875,368.8730163574219)"/>
<path d="M0 0 C2.05078125 0.03255208 4.1015625 0.06510417 6.15234375 0.09765625 C6.28546465 8.33247896 6.41597004 16.56733788 6.54349518 24.80224895 C6.6028407 28.62966066 6.6629549 32.45705644 6.72509766 36.28442383 C6.87971062 45.83528336 7.01773647 55.38618609 7.12731934 64.93767548 C7.1440693 66.38344754 7.16140794 67.82921289 7.17932129 69.27497101 C7.23847665 74.07653293 7.27833804 78.87785446 7.30859375 83.6796875 C7.32345825 84.90975021 7.33832275 86.13981293 7.3536377 87.40715027 C7.3574646 88.52680679 7.3612915 89.64646332 7.36523438 90.80004883 C7.37252563 91.77976151 7.37981689 92.75947418 7.3873291 93.76887512 C7.15234375 96.09765625 7.15234375 96.09765625 5.15234375 98.09765625 C1.52734375 98.22265625 1.52734375 98.22265625 -1.84765625 98.09765625 C-3.17549123 94.1141513 -2.98675083 90.29682015 -2.97705078 86.14404297 C-2.9788031 85.22837555 -2.98055542 84.31270813 -2.98236084 83.36929321 C-2.98676708 80.33862419 -2.98384614 77.30801338 -2.98046875 74.27734375 C-2.98114202 72.17652373 -2.98211225 70.07570379 -2.98336792 67.97488403 C-2.98484313 63.57162738 -2.98269555 59.16839101 -2.97802734 54.76513672 C-2.97232316 49.10760324 -2.97561454 43.45011712 -2.98159981 37.79258537 C-2.9852042 33.45532877 -2.98406752 29.1180835 -2.98147202 24.78082657 C-2.98080277 22.69392008 -2.98163108 20.60701258 -2.98395157 18.52010727 C-2.98647685 15.61087038 -2.98263959 12.70171151 -2.97705078 9.79248047 C-2.97907501 8.92181946 -2.98109924 8.05115845 -2.98318481 7.15411377 C-2.95814265 0.15635003 -2.95814265 0.15635003 0 0 Z " fill="#FDFBFD" transform="translate(518.84765625,569.90234375)"/>
<path d="M0 0 C2.375 0.6875 2.375 0.6875 3.375 1.6875 C4.09579299 5.933626 3.24458156 8.28813938 0.8828125 11.71875 C-0.23048747 13.21905425 -1.35868448 14.70839603 -2.5 16.1875 C-4.20869682 18.46302413 -5.91145156 20.74028919 -7.5871582 23.0402832 C-9.625 25.6875 -9.625 25.6875 -12.24682617 28.51245117 C-21.82607217 39.34010787 -21.15240654 51.13407451 -21.1875 65 C-21.24347683 68.39104299 -21.31271939 71.78163746 -21.38304138 75.17240906 C-21.42138905 77.26891879 -21.44847843 79.36567041 -21.46327209 81.46247864 C-21.47096115 82.39823227 -21.47865021 83.3339859 -21.48657227 84.2980957 C-21.48971939 85.12412796 -21.49286652 85.95016022 -21.49610901 86.80122375 C-21.625 88.6875 -21.625 88.6875 -22.625 89.6875 C-24.96444736 89.40019945 -27.2989143 89.06813221 -29.625 88.6875 C-29.91517346 82.78756363 -30.16276484 76.88834605 -30.35546875 70.984375 C-30.51257987 66.17147311 -30.77672263 61.38155332 -31.11328125 56.578125 C-31.77922482 44.61704322 -32.02907311 35.6357577 -23.82763672 26.3684082 C-22.69380807 25.14374798 -21.55281035 23.92569188 -20.40527344 22.71386719 C-17.04154974 18.88516359 -14.35605358 14.56464872 -11.5625 10.3125 C-10.49433748 8.69650137 -9.42054609 7.08420214 -8.33984375 5.4765625 C-7.88730225 4.79287598 -7.43476074 4.10918945 -6.96850586 3.40478516 C-4.85312166 0.70087593 -3.46700548 -0.41273875 0 0 Z " fill="#FBFAFC" transform="translate(519.625,520.3125)"/>
<path d="M0 0 C1.4800841 0.11362262 2.95910074 0.24122908 4.4375 0.375 C5.26121094 0.44460938 6.08492188 0.51421875 6.93359375 0.5859375 C7.95646484 0.79089844 7.95646484 0.79089844 9 1 C10.48866824 3.97733649 10.22366408 6.75075431 10.31640625 10.0703125 C10.33718735 10.78420135 10.35796844 11.49809021 10.37937927 12.23361206 C10.42270497 13.7551263 10.46373919 15.27670721 10.50268555 16.79833984 C10.56102338 19.06756269 10.62650754 21.33648265 10.69335938 23.60546875 C10.82041831 28.06991602 10.9150843 32.5345762 11 37 C11.0166571 37.76356812 11.03331421 38.52713623 11.05047607 39.31384277 C11.09562145 41.53995255 11.12623661 43.76578209 11.15234375 45.9921875 C11.17159912 47.29269043 11.19085449 48.59319336 11.21069336 49.93310547 C11 53 11 53 9 55 C5.4375 55.1875 5.4375 55.1875 2 55 C0.32063825 53.32063825 0.83212121 51.23489172 0.79467773 48.92944336 C0.7647599 47.30787575 0.7647599 47.30787575 0.73423767 45.65354919 C0.71752518 44.4775264 0.70081268 43.3015036 0.68359375 42.08984375 C0.66281265 40.89267227 0.64203156 39.69550079 0.62062073 38.46205139 C0.55499721 34.62059513 0.49618097 30.77906799 0.4375 26.9375 C0.39432695 24.34048733 0.35071307 21.74348194 0.30664062 19.14648438 C0.19930284 12.76439883 0.09756069 6.38224207 0 0 Z " fill="#FDFCFD" transform="translate(489,627)"/>
<path d="M0 0 C0.9075 0.185625 1.815 0.37125 2.75 0.5625 C6.1508075 1.22423708 6.1508075 1.22423708 10 0 C10 17.16 10 34.32 10 52 C6.37 52 2.74 52 -1 52 C-0.96970703 50.70900391 -0.93941406 49.41800781 -0.90820312 48.08789062 C-0.79544957 43.27215695 -0.68392198 38.45639551 -0.57275391 33.640625 C-0.52458292 31.56119021 -0.47608491 29.48176296 -0.42724609 27.40234375 C-0.35687481 24.40366537 -0.28770171 21.40496131 -0.21875 18.40625 C-0.19687622 17.48509399 -0.17500244 16.56393799 -0.15246582 15.61486816 C-0.03405141 10.40820787 0.02125718 5.20800974 0 0 Z " fill="#FCFBFD" transform="translate(416,648)"/>
<path d="M0 0 C-0.33 3.63 -0.66 7.26 -1 11 C-5.39581876 11.02950823 -9.7916114 11.04696682 -14.1875 11.0625 C-15.41404297 11.07087891 -16.64058594 11.07925781 -17.90429688 11.08789062 C-25.98556584 11.10921323 -33.95353136 10.7501017 -42 10 C-42.33 7.03 -42.66 4.06 -43 1 C-37.84052331 0.85653282 -32.68101822 0.71415053 -27.52148438 0.57275391 C-25.76789551 0.52454639 -24.01431463 0.47604742 -22.26074219 0.42724609 C-19.73374464 0.35697204 -17.2067198 0.28776158 -14.6796875 0.21875 C-13.90132538 0.19687622 -13.12296326 0.17500244 -12.3210144 0.15246582 C-8.21245693 0.04135575 -4.11057623 -0.0228683 0 0 Z " fill="#FBF5FB" transform="translate(720,316)"/>
<path d="M0 0 C7.59 0 15.18 0 23 0 C23 3.3 23 6.6 23 10 C15.41 10 7.82 10 0 10 C0.33 8.02 0.66 6.04 1 4 C0.67 2.68 0.34 1.36 0 0 Z " fill="#FAF7FB" transform="translate(697,390)"/>
<path d="M0 0 C2.48038907 3.7205836 2.46337203 5.59796571 2 10 C0.4375 12.5 0.4375 12.5 -2 14 C-5.50066452 13.93858483 -7.93130044 13.71246637 -10.875 11.75 C-12.38463345 9.4016813 -12.86663055 7.80075852 -13 5 C-11.75390398 2.17988796 -10.60174759 0.47724808 -8.1875 -1.4375 C-4.94378646 -2.27159777 -2.99333245 -1.36652133 0 0 Z " fill="#050107" transform="translate(526,556)"/>
<path d="M0 0 C2.92649245 1.50279342 3.79169535 2.35906261 4.8125 5.5 C5 8 5 8 4 11 C0.0161054 13.65592973 -3.3150427 13.84311848 -8 13 C-10.1875 10.875 -10.1875 10.875 -11 8 C-10.375 4.8125 -10.375 4.8125 -9 2 C-5.51131349 -0.32579101 -4.10281481 -0.41865457 0 0 Z " fill="#090609" transform="translate(674,315)"/>
<path d="M0 0 C2.0625 2.1875 2.0625 2.1875 3 5 C2.375 8.1875 2.375 8.1875 1 11 C-2.2756917 13.18379446 -3.20070529 13.54275639 -7 13 C-9.875 11.4375 -9.875 11.4375 -12 9 C-11.88231248 5.58706205 -11.52982686 3.05965373 -10 0 C-6.17853346 -1.27382218 -3.89335307 -0.97333827 0 0 Z " fill="#050307" transform="translate(696,389)"/>
<path d="M0 0 C2.74892592 0.89154354 4.71566361 1.74409725 6.875 3.6875 C8.56571094 7.16285027 8.06256461 9.34743417 7 13 C4.8125 15.0625 4.8125 15.0625 2 16 C-1.34062802 15.41047741 -3.25781989 14.90352362 -5.4375 12.25 C-6.19789992 9.20840031 -5.7861491 7.01357156 -5 4 C-4.34 3.34 -3.68 2.68 -3 2 C-2.01 2 -1.02 2 0 2 C0 1.34 0 0.68 0 0 Z " fill="#060308" transform="translate(420,634)"/>
<path d="M0 0 C6.04942966 2.12547529 6.04942966 2.12547529 8 5 C8.42599916 8.33699345 8.35606595 10.30660842 6.8125 13.3125 C4.51776981 15.44897293 3.11798412 15.84790321 0 16 C-2.1875 15.5625 -2.1875 15.5625 -4 14 C-5.17940495 11.36946445 -5.82925908 8.8798302 -6 6 C-4.8125 3.5 -4.8125 3.5 -3 2 C-2.01 2 -1.02 2 0 2 C0 1.34 0 0.68 0 0 Z " fill="#040207" transform="translate(493,613)"/>
<path d="M0 0 C2.0625 2.1875 2.0625 2.1875 3 5 C2.40382837 8.3783059 1.90969684 10.2785163 -0.8125 12.4375 C-3.5832616 13.14998155 -5.2776232 12.8376544 -8 12 C-11 10 -11 10 -11.8125 7.6875 C-12.03398217 4.51292218 -11.53992189 2.7718594 -10 0 C-6.17853346 -1.27382218 -3.89335307 -0.97333827 0 0 Z " fill="#060507" transform="translate(580,366)"/>
<path d="M0 0 C2.74892592 0.89154354 4.71566361 1.74409725 6.875 3.6875 C8.56571094 7.16285027 8.06256461 9.34743417 7 13 C4.75 15.0625 4.75 15.0625 2 16 C-1.17435434 15.18795587 -2.68180575 14.31819425 -5 12 C-5.96641489 8.58037808 -6.4327223 6.82217237 -4.75 3.625 C-3 2 -3 2 0 2 C0 1.34 0 0.68 0 0 Z " fill="#060408" transform="translate(442,518)"/>
<path d="M0 0 C5.61 0 11.22 0 17 0 C17 2.97 17 5.94 17 9 C15.35 8.67 13.7 8.34 12 8 C12.66 5.69 13.32 3.38 14 1 C9.38 1 4.76 1 0 1 C0 0.67 0 0.34 0 0 Z " fill="#AF2ABB" transform="translate(703,400)"/>
<path d="M0 0 C1.2065625 0.0309375 1.2065625 0.0309375 2.4375 0.0625 C2.4375 2.0425 2.4375 4.0225 2.4375 6.0625 C0.4575 6.0625 -1.5225 6.0625 -3.5625 6.0625 C-3.605221 4.39638095 -3.60313832 2.72867115 -3.5625 1.0625 C-2.5625 0.0625 -2.5625 0.0625 0 0 Z " fill="#E7D2E8" transform="translate(691.5625,391.9375)"/>
<path d="M0 0 C1.2065625 0.0309375 1.2065625 0.0309375 2.4375 0.0625 C2.4375 2.0425 2.4375 4.0225 2.4375 6.0625 C0.4575 6.0625 -1.5225 6.0625 -3.5625 6.0625 C-3.605221 4.39638095 -3.60313832 2.72867115 -3.5625 1.0625 C-2.5625 0.0625 -2.5625 0.0625 0 0 Z " fill="#E9E7E9" transform="translate(575.5625,368.9375)"/>
<path d="M0 0 C1.65 0 3.3 0 5 0 C5.33 1.65 5.66 3.3 6 5 C4.34385343 5.38218767 2.67542976 5.71395102 1 6 C0 5 0 5 -0.0625 2.4375 C-0.041875 1.633125 -0.02125 0.82875 0 0 Z " fill="#F3DFF4" transform="translate(418,639)"/>
<path d="M0 0 C1.65 0 3.3 0 5 0 C5.33 1.65 5.66 3.3 6 5 C4.34385343 5.38218767 2.67542976 5.71395102 1 6 C0 5 0 5 -0.0625 2.4375 C-0.041875 1.633125 -0.02125 0.82875 0 0 Z " fill="#EFD8F0" transform="translate(491,618)"/>
<path d="M0 0 C1.65 0 3.3 0 5 0 C5.33 1.65 5.66 3.3 6 5 C4.34385343 5.38218767 2.67542976 5.71395102 1 6 C0 5 0 5 -0.0625 2.4375 C-0.041875 1.633125 -0.02125 0.82875 0 0 Z " fill="#FBFAFB" transform="translate(440,523)"/>
<path d="M0 0 C1.67542976 0.28604898 3.34385343 0.61781233 5 1 C4.67 2.65 4.34 4.3 4 6 C2.35 6 0.7 6 -1 6 C-1.042721 4.33388095 -1.04063832 2.66617115 -1 1 C-0.67 0.67 -0.34 0.34 0 0 Z " fill="#E7D3E8" transform="translate(669,319)"/>
<path d="M0 0 C1.65 0.33 3.3 0.66 5 1 C4.67 2.65 4.34 4.3 4 6 C2.35 5.67 0.7 5.34 -1 5 C-0.67 3.35 -0.34 1.7 0 0 Z " fill="#E2CCE3" transform="translate(519,559)"/>
<path d="M0 0 C0.99 0.33 1.98 0.66 3 1 C3 3.31 3 5.62 3 8 C2.34 8 1.68 8 1 8 C-0.35439668 5.29120665 -0.06501451 2.99066732 0 0 Z " fill="#AE25BA" transform="translate(717,308)"/>
<path d="" fill="#FFFFFF" transform="translate(0,0)"/>
</svg>
